<svg preserveAspectRatio="none" overflow="visible" style="display: block;" width="20" height="20" viewBox="0 0 20 20" fill="none" xmlns="http://www.w3.org/2000/svg">
<g id="Status / Backup Cloud Icon">
<path id="Status / Backup Cloud Icon / Path" d="M5.2 15.5H14.4C15.2222 15.553 16.0317 15.2773 16.6506 14.7335C17.2695 14.1896 17.647 13.4222 17.7 12.6C17.753 11.7778 17.4773 10.9683 16.9335 10.3494C16.3896 9.73052 15.6222 9.35304 14.8 9.3C14.6356 8.18635 14.1074 7.15839 13.2977 6.37635C12.4879 5.59431 11.4422 5.10214 10.3235 4.97658C9.20486 4.85101 8.07606 5.0991 7.11311 5.68216C6.15017 6.26523 5.40719 7.15051 5 8.2C4.13809 8.36549 3.36307 8.83198 2.81336 9.51616C2.26365 10.2003 1.97504 11.0576 1.99908 11.935C2.02311 12.8123 2.35823 13.6525 2.94458 14.3055C3.53093 14.9586 4.33032 15.3819 5.2 15.5Z" stroke="#3DDEE5" stroke-width="1.6"/>
</g>
</svg>
